<svg xmlns="http://www.w3.org/2000/svg" version="1.1" xmlns:xlink="http://www.w3.org/1999/xlink" xmlns:svgjs="http://svgjs.dev/svgjs" width="1000" height="1000" viewBox="0 0 1000 1000"><rect width="1000" height="1000" fill="#ffffff"></rect><g transform="matrix(0.7,0,0,0.7,149.57575757575756,387.3866840859596)"><svg viewBox="0 0 396 128" data-background-color="#ffffff" preserveAspectRatio="xMidYMid meet" height="323" width="1000" xmlns="http://www.w3.org/2000/svg" xmlns:xlink="http://www.w3.org/1999/xlink"><g id="tight-bounds" transform="matrix(1,0,0,1,0.2400000000000091,-0.247216112352163)"><svg viewBox="0 0 395.52 128.49443222470435" height="128.49443222470435" width="395.52"><g><svg viewBox="0 0 618.7001150444821 201" height="128.49443222470435" width="395.52"><g><rect width="8.324402953846157" height="201" x="225.76356850089235" y="0" fill="#233565" opacity="1" stroke-width="0" stroke="transparent" fill-opacity="1" class="rect-o-0" data-fill-palette-color="primary" rx="1%" id="o-0" data-palette-color="#233565"></rect></g><g transform="matrix(1,0,0,1,255.87960222396927,0.4999999999999858)"><svg viewBox="0 0 362.8205128205129 200.00000000000003" height="200.00000000000003" width="362.8205128205129"><g id="textblocktransform"><svg viewBox="0 0 362.8205128205129 200.00000000000003" height="200.00000000000003" width="362.8205128205129" id="textblock"><g><svg viewBox="0 0 362.8205128205129 200.00000000000003" height="200.00000000000003" width="362.8205128205129"><g transform="matrix(1,0,0,1,0,0)"><svg width="362.8205128205129" viewBox="2.400001049041748 -35.14999771118164 141.5 74.65192413330078" height="200.00000000000003" data-palette-color="#233565"><svg></svg><svg></svg><g class="undefined-text-0" data-fill-palette-color="primary" id="text-0"><path xmlns="http://www.w3.org/2000/svg" d="M6.4 0v0c-0.5 0-0.907-0.15-1.22-0.45-0.32-0.3-0.48-0.65-0.48-1.05v0-32c0-0.4 0.15-0.75 0.45-1.05 0.3-0.3 0.65-0.45 1.05-0.45v0h13.5c1.9 0 3.6 0.41 5.1 1.23 1.5 0.813 2.677 1.937 3.53 3.37 0.847 1.433 1.27 3.05 1.27 4.85v0c0 1.467-0.267 2.817-0.8 4.05-0.533 1.233-1.283 2.273-2.25 3.12-0.967 0.853-2.05 1.48-3.25 1.88v0l-1.75-0.55c1.233 0.1 2.383 0.49 3.45 1.17 1.067 0.687 1.927 1.62 2.58 2.8 0.647 1.187 0.987 2.613 1.02 4.28v0c0.033 1.433 0.11 2.55 0.23 3.35 0.113 0.8 0.287 1.4 0.52 1.8 0.233 0.4 0.533 0.717 0.9 0.95v0c0.333 0.2 0.56 0.483 0.68 0.85 0.113 0.367 0.07 0.717-0.13 1.05v0c-0.133 0.267-0.323 0.457-0.57 0.57-0.253 0.12-0.513 0.18-0.78 0.18-0.267 0-0.533-0.067-0.8-0.2v0c-0.467-0.267-0.94-0.683-1.42-1.25-0.487-0.567-0.887-1.4-1.2-2.5-0.32-1.1-0.48-2.633-0.48-4.6v0c0-1.3-0.207-2.367-0.62-3.2-0.42-0.833-0.953-1.477-1.6-1.93-0.653-0.447-1.37-0.763-2.15-0.95-0.787-0.18-1.53-0.27-2.23-0.27v0h-11.65l0.55-0.7v14.15c0 0.4-0.133 0.75-0.4 1.05-0.267 0.3-0.617 0.45-1.05 0.45zM7.85-17l-0.55-0.7h12.55c1.133-0.1 2.2-0.473 3.2-1.12 1-0.653 1.81-1.547 2.43-2.68 0.613-1.133 0.92-2.45 0.92-3.95v0c0-1.9-0.64-3.477-1.92-4.73-1.287-1.247-2.963-1.87-5.03-1.87v0h-11.95l0.35-0.7zM49-31.35l0.9 0.2-12.15 30.2c-0.133 0.333-0.317 0.583-0.55 0.75-0.233 0.167-0.5 0.25-0.8 0.25v0c-0.467 0-0.817-0.127-1.05-0.38-0.233-0.247-0.367-0.553-0.4-0.92v0c-0.033-0.167-0.017-0.367 0.05-0.6v0l13.2-32.3c0.167-0.367 0.377-0.627 0.63-0.78 0.247-0.147 0.537-0.22 0.87-0.22v0c0.333 0 0.627 0.09 0.88 0.27 0.247 0.187 0.437 0.43 0.57 0.73v0l13.15 32.15c0.067 0.2 0.1 0.4 0.1 0.6v0c0 0.467-0.15 0.823-0.45 1.07-0.3 0.253-0.65 0.38-1.05 0.38v0c-0.333 0-0.623-0.093-0.87-0.28-0.253-0.18-0.447-0.42-0.58-0.72v0zM58-10.1h-17.35l1.25-2.95h15.5zM73.7-33.45v31.9c-0.033 0.433-0.21 0.8-0.53 1.1-0.313 0.3-0.67 0.45-1.07 0.45v0c-0.467 0-0.843-0.15-1.13-0.45-0.28-0.3-0.42-0.667-0.42-1.1v0-31.9c0-0.433 0.15-0.8 0.45-1.1 0.3-0.3 0.683-0.45 1.15-0.45v0c0.4 0 0.757 0.15 1.07 0.45 0.32 0.3 0.48 0.667 0.48 1.1zM108.65-35v0c0.433 0 0.773 0.133 1.02 0.4 0.253 0.267 0.38 0.6 0.38 1v0 32c0 0.5-0.16 0.89-0.48 1.17-0.313 0.287-0.67 0.43-1.07 0.43v0c-0.2 0-0.417-0.043-0.65-0.13-0.233-0.08-0.417-0.203-0.55-0.37v0l-22.3-30.05 0.85-0.45v29.65c0 0.367-0.133 0.683-0.4 0.95-0.267 0.267-0.6 0.4-1 0.4v0c-0.433 0-0.777-0.133-1.03-0.4-0.247-0.267-0.37-0.583-0.37-0.95v0-32.15c0-0.5 0.15-0.877 0.45-1.13 0.3-0.247 0.633-0.37 1-0.37v0c0.2 0 0.417 0.04 0.65 0.12 0.233 0.087 0.417 0.23 0.55 0.43v0l22.05 29.7-0.5 0.9v-29.75c0-0.4 0.14-0.733 0.42-1 0.287-0.267 0.613-0.4 0.98-0.4z" fill="#233565" fill-rule="nonzero" stroke="none" stroke-width="1" stroke-linecap="butt" stroke-linejoin="miter" stroke-miterlimit="10" stroke-dasharray="" stroke-dashoffset="0" font-family="none" font-weight="none" font-size="none" text-anchor="none" style="mix-blend-mode: normal" data-fill-palette-color="primary" opacity="1"></path><path xmlns="http://www.w3.org/2000/svg" d="M30.25 6.6v0c0.4 0.267 0.633 0.607 0.7 1.02 0.067 0.42-0.033 0.83-0.3 1.23v0c-0.233 0.3-0.533 0.467-0.9 0.5-0.367 0.033-0.717-0.033-1.05-0.2v0c-1.267-0.833-2.623-1.483-4.07-1.95-1.453-0.467-3.013-0.7-4.68-0.7v0c-2.033 0-3.923 0.357-5.67 1.07-1.753 0.72-3.28 1.753-4.58 3.1-1.3 1.353-2.307 2.947-3.02 4.78-0.72 1.833-1.08 3.85-1.08 6.05v0c0 2.267 0.367 4.323 1.1 6.17 0.733 1.853 1.76 3.447 3.08 4.78 1.313 1.333 2.837 2.35 4.57 3.05 1.733 0.7 3.6 1.05 5.6 1.05v0c1.633 0 3.177-0.233 4.63-0.7 1.447-0.467 2.803-1.1 4.07-1.9v0c0.333-0.2 0.693-0.277 1.08-0.23 0.38 0.053 0.687 0.247 0.92 0.58v0c0.3 0.367 0.41 0.757 0.33 1.17-0.087 0.42-0.313 0.747-0.68 0.98v0c-0.833 0.533-1.817 1.033-2.95 1.5-1.133 0.467-2.333 0.843-3.6 1.13-1.267 0.28-2.533 0.42-3.8 0.42v0c-2.4 0-4.65-0.433-6.75-1.3-2.1-0.867-3.967-2.093-5.6-3.68-1.633-1.58-2.907-3.47-3.82-5.67-0.92-2.2-1.38-4.65-1.38-7.35v0c0-2.6 0.45-4.993 1.35-7.18 0.9-2.18 2.15-4.07 3.75-5.67 1.6-1.6 3.467-2.85 5.6-3.75 2.133-0.9 4.417-1.35 6.85-1.35v0c1.9 0 3.733 0.267 5.5 0.8 1.767 0.533 3.367 1.283 4.8 2.25zM48.15 7.65l0.9 0.2-12.15 30.2c-0.133 0.333-0.317 0.583-0.55 0.75-0.233 0.167-0.5 0.25-0.8 0.25v0c-0.467 0-0.817-0.127-1.05-0.38-0.233-0.247-0.367-0.553-0.4-0.92v0c-0.033-0.167-0.017-0.367 0.05-0.6v0l13.2-32.3c0.167-0.367 0.377-0.627 0.63-0.78 0.247-0.147 0.537-0.22 0.87-0.22v0c0.333 0 0.623 0.09 0.87 0.27 0.253 0.187 0.447 0.43 0.58 0.73v0l13.15 32.15c0.067 0.2 0.1 0.4 0.1 0.6v0c0 0.467-0.15 0.823-0.45 1.07-0.3 0.253-0.65 0.38-1.05 0.38v0c-0.333 0-0.627-0.093-0.88-0.28-0.247-0.18-0.437-0.42-0.57-0.72v0zM57.15 28.9h-17.35l1.25-2.95h15.5zM71.9 36.05h17.15c0.4 0 0.75 0.14 1.05 0.42 0.3 0.287 0.45 0.63 0.45 1.03v0c0 0.433-0.15 0.79-0.45 1.07-0.3 0.287-0.65 0.43-1.05 0.43v0h-17.85c-0.433 0-0.79-0.15-1.07-0.45-0.287-0.3-0.43-0.65-0.43-1.05v0-32c0-0.4 0.15-0.75 0.45-1.05 0.3-0.3 0.683-0.45 1.15-0.45v0c0.4 0 0.76 0.15 1.08 0.45 0.313 0.3 0.47 0.65 0.47 1.05v0 31.4zM98.5 36.05h17.15c0.4 0 0.75 0.14 1.05 0.42 0.3 0.287 0.45 0.63 0.45 1.03v0c0 0.433-0.15 0.79-0.45 1.07-0.3 0.287-0.65 0.43-1.05 0.43v0h-17.85c-0.433 0-0.793-0.15-1.08-0.45-0.28-0.3-0.42-0.65-0.42-1.05v0-32c0-0.4 0.15-0.75 0.45-1.05 0.3-0.3 0.683-0.45 1.15-0.45v0c0.4 0 0.757 0.15 1.07 0.45 0.32 0.3 0.48 0.65 0.48 1.05v0 31.4zM132.55 39.5v0c-2.533 0.033-4.733-0.367-6.6-1.2-1.867-0.833-3.65-2.083-5.35-3.75v0c-0.167-0.133-0.31-0.3-0.43-0.5-0.113-0.2-0.17-0.433-0.17-0.7v0c0-0.4 0.157-0.767 0.47-1.1 0.32-0.333 0.68-0.5 1.08-0.5v0c0.4 0 0.767 0.167 1.1 0.5v0c1.3 1.4 2.773 2.467 4.42 3.2 1.653 0.733 3.43 1.1 5.33 1.1v0c1.6 0 3.023-0.25 4.27-0.75 1.253-0.5 2.247-1.217 2.98-2.15 0.733-0.933 1.1-2.017 1.1-3.25v0c0-1.533-0.417-2.777-1.25-3.73-0.833-0.947-1.933-1.73-3.3-2.35-1.367-0.613-2.883-1.17-4.55-1.67v0c-1.367-0.4-2.667-0.86-3.9-1.38-1.233-0.513-2.333-1.147-3.3-1.9-0.967-0.747-1.717-1.67-2.25-2.77-0.533-1.1-0.8-2.433-0.8-4v0c0-1.767 0.467-3.333 1.4-4.7 0.933-1.367 2.257-2.443 3.97-3.23 1.72-0.78 3.713-1.17 5.98-1.17v0c1.967 0 3.857 0.333 5.67 1 1.82 0.667 3.263 1.65 4.33 2.95v0c0.5 0.533 0.75 1.017 0.75 1.45v0c0 0.333-0.167 0.667-0.5 1-0.333 0.333-0.7 0.5-1.1 0.5v0c-0.333 0-0.617-0.117-0.85-0.35v0c-0.567-0.7-1.283-1.327-2.15-1.88-0.867-0.547-1.827-0.97-2.88-1.27-1.047-0.3-2.137-0.45-3.27-0.45v0c-1.567 0-2.977 0.24-4.23 0.72-1.247 0.487-2.23 1.18-2.95 2.08-0.713 0.9-1.07 1.983-1.07 3.25v0c0 1.4 0.4 2.55 1.2 3.45 0.8 0.9 1.85 1.64 3.15 2.22 1.3 0.587 2.683 1.13 4.15 1.63v0c1.433 0.4 2.81 0.86 4.13 1.38 1.313 0.513 2.48 1.153 3.5 1.92 1.013 0.767 1.81 1.733 2.39 2.9 0.587 1.167 0.88 2.633 0.88 4.4v0c0 1.7-0.483 3.233-1.45 4.6-0.967 1.367-2.293 2.45-3.98 3.25-1.68 0.8-3.653 1.217-5.92 1.25z" fill="#233565" fill-rule="nonzero" stroke="none" stroke-width="1" stroke-linecap="butt" stroke-linejoin="miter" stroke-miterlimit="10" stroke-dasharray="" stroke-dashoffset="0" font-family="none" font-weight="none" font-size="none" text-anchor="none" style="mix-blend-mode: normal" data-fill-palette-color="primary" opacity="1"></path></g></svg></g></svg></g></svg></g></svg></g><g transform="matrix(1,0,0,1,0,0.4999999999999858)"><svg viewBox="0 0 203.97193773166157 200.00000000000003" height="200.00000000000003" width="203.97193773166157"><g><svg xmlns="http://www.w3.org/2000/svg" xmlns:xlink="http://www.w3.org/1999/xlink" version="1.1" x="0" y="0" viewBox="6.799999237060547 5.300000190734863 87.29998779296875 85.5999984741211" enable-background="new 0 0 100 100" xml:space="preserve" height="200.00000000000003" width="203.97193773166157" class="icon-icon-0" data-fill-palette-color="accent" id="icon-0"><g fill="#8bd8bc" data-fill-palette-color="accent"><path d="M56.6 50.3c-6.3 0-11.5-5.2-11.5-11.5s5.2-11.5 11.5-11.5 11.5 5.2 11.5 11.5S62.9 50.3 56.6 50.3zM56.6 30.3c-4.7 0-8.5 3.8-8.5 8.5s3.8 8.5 8.5 8.5 8.5-3.8 8.5-8.5S61.3 30.3 56.6 30.3z" fill="#8bd8bc" data-fill-palette-color="accent"></path><path d="M66.6 90.9h-20c-0.8 0-1.5-0.7-1.5-1.5V63.8c0-6.3 5.2-11.5 11.5-11.5 3 0 5.9 1.2 8.1 3.3l0.1 0.1 7.9 8.1 6.2-7.6c0.3-0.3 0.7-0.6 1.2-0.6h9.7c2.4 0 4.3 1.9 4.3 4.3 0 2.4-1.9 4.3-4.3 4.3h-5.2L74.3 76.5C74 76.8 73.6 77 73.2 77c-0.4 0-0.8-0.1-1.1-0.4l-4-3.9v16.6C68.1 90.2 67.4 90.9 66.6 90.9zM48.1 87.9h17V69.2c0-0.6 0.4-1.1 0.9-1.4 0.6-0.2 1.2-0.1 1.6 0.3l5.4 5.2 9.6-11.5c0.3-0.3 0.7-0.5 1.2-0.5h5.9c0.7 0 1.3-0.6 1.3-1.3 0-0.7-0.6-1.3-1.3-1.3h-9L73.9 67c-0.3 0.3-0.7 0.5-1.1 0.6-0.4 0-0.8-0.1-1.1-0.4l-9.2-9.4c-1.6-1.6-3.7-2.4-6-2.4-4.7 0-8.5 3.8-8.5 8.5V87.9z" fill="#8bd8bc" data-fill-palette-color="accent"></path><circle cx="56.8" cy="38.8" r="1.9" fill="#8bd8bc" data-fill-palette-color="accent"></circle><circle cx="61.9" cy="36.8" r="1.9" fill="#8bd8bc" data-fill-palette-color="accent"></circle><path d="M38.3 5.3c-17.4 0-31.5 10-31.5 22.4 0 0.5 0.3 1 0.7 1.3 0.4 0.3 1 0.3 1.5 0.1l3.6-1.8c4.3-2.2 9-2 13.3 0.4l2.4 1.4c0.2 0.1 0.5 0.2 0.7 0.2 0.3 0 0.7-0.1 0.9-0.3l0.3-0.2c2.2-1.7 4.6-2.8 7-3.2v36.3c0 0.9-0.7 1.7-1.7 1.7-0.9 0-1.7-0.7-1.7-1.7v-2.4h-3v2.4c0 2.6 2.1 4.7 4.7 4.7s4.7-2.1 4.7-4.7V25.2c2.3 0.1 4.5 0.9 6.6 2.2 0.5 0.3 1.1 0.3 1.5 0l1.3-0.8c4.9-2.9 10.4-2.6 15.2 0.6l2.5 1.7c0.5 0.3 1.1 0.3 1.5 0.1 0.5-0.3 0.8-0.8 0.8-1.3C69.8 15.3 55.6 5.3 38.3 5.3zM56.9 21.6c-3 0-5.9 0.8-8.7 2.4l-0.6 0.3c-2.6-1.4-5.4-2.2-8.2-2.2-3.7 0-7.3 1.3-10.5 3.6L27.4 25c-2.7-1.5-5.6-2.3-8.5-2.3-2.6 0-5.2 0.6-7.6 1.8L10 25.1c1.8-9.5 13.8-16.8 28.3-16.8 14.2 0 26 7.1 28.1 16.3C63.4 22.7 60.1 21.6 56.9 21.6z" fill="#8bd8bc" data-fill-palette-color="accent"></path><path d="M85.2 45.1c-2.4 0-4.3-1.9-4.3-4.3 0-1.7 1.3-6.9 4.3-6.9 3 0 4.3 5.2 4.3 6.9C89.5 43.1 87.6 45.1 85.2 45.1zM85.2 37c-0.6 0.6-1.3 2.7-1.3 3.7 0 0.7 0.6 1.3 1.3 1.3 0.7 0 1.3-0.6 1.3-1.3C86.5 39.7 85.7 37.6 85.2 37z" fill="#8bd8bc" data-fill-palette-color="accent"></path></g></svg></g></svg></g></svg></g><defs></defs></svg><rect width="395.52" height="128.49443222470435" fill="none" stroke="none" visibility="hidden"></rect></g></svg></g></svg>